<svg xmlns="http://www.w3.org/2000/svg" xmlns:xlink="http://www.w3.org/1999/xlink" width="1000" zoomAndPan="magnify" viewBox="0 0 750 177.750001" height="237" preserveAspectRatio="xMidYMid meet" version="1.0"><defs><g/><clipPath id="d0393bb391"><path d="M 0.527344 0 L 733 0 L 733 177.5 L 0.527344 177.5 Z M 0.527344 0 " clip-rule="nonzero"/></clipPath><clipPath id="164a4ccdec"><path d="M 18.28125 39.980469 L 229 39.980469 L 229 146.429688 L 18.28125 146.429688 Z M 18.28125 39.980469 " clip-rule="nonzero"/></clipPath><clipPath id="3dd0220969"><path d="M 71.332031 39.980469 L 175.75 39.980469 C 205.050781 39.980469 228.800781 63.734375 228.800781 93.03125 C 228.800781 122.332031 205.050781 146.082031 175.75 146.082031 L 71.332031 146.082031 C 42.03125 146.082031 18.28125 122.332031 18.28125 93.03125 C 18.28125 63.734375 42.03125 39.980469 71.332031 39.980469 Z M 71.332031 39.980469 " clip-rule="nonzero"/></clipPath><clipPath id="bd51ef3a34"><path d="M 149.226562 71.8125 L 191.671875 71.8125 L 191.671875 114.257812 L 149.226562 114.257812 Z M 149.226562 71.8125 " clip-rule="nonzero"/></clipPath><clipPath id="77e98da9b3"><path d="M 170.449219 71.8125 C 158.730469 71.8125 149.226562 81.3125 149.226562 93.035156 C 149.226562 104.753906 158.730469 114.257812 170.449219 114.257812 C 182.167969 114.257812 191.671875 104.753906 191.671875 93.035156 C 191.671875 81.3125 182.167969 71.8125 170.449219 71.8125 Z M 170.449219 71.8125 " clip-rule="nonzero"/></clipPath><clipPath id="b4f620fc4e"><path d="M 0.226562 0.8125 L 42.671875 0.8125 L 42.671875 43.257812 L 0.226562 43.257812 Z M 0.226562 0.8125 " clip-rule="nonzero"/></clipPath><clipPath id="72ec47fe94"><path d="M 21.449219 0.8125 C 9.730469 0.8125 0.226562 10.3125 0.226562 22.035156 C 0.226562 33.753906 9.730469 43.257812 21.449219 43.257812 C 33.167969 43.257812 42.671875 33.753906 42.671875 22.035156 C 42.671875 10.3125 33.167969 0.8125 21.449219 0.8125 Z M 21.449219 0.8125 " clip-rule="nonzero"/></clipPath><linearGradient x1="0.000000000000227374" gradientTransform="matrix(0.165794, 0, 0, 0.165794, 0.227251, 0.813026)" y1="128" x2="255.999997" gradientUnits="userSpaceOnUse" y2="128" id="ed40c66fa1"><stop stop-opacity="1" stop-color="rgb(100%, 19.219971%, 19.219971%)" offset="0"/><stop stop-opacity="1" stop-color="rgb(100%, 19.366455%, 19.262695%)" offset="0.0078125"/><stop stop-opacity="1" stop-color="rgb(100%, 19.659424%, 19.348145%)" offset="0.015625"/><stop stop-opacity="1" stop-color="rgb(100%, 19.953918%, 19.433594%)" offset="0.0234375"/><stop stop-opacity="1" stop-color="rgb(100%, 20.248413%, 19.519043%)" offset="0.03125"/><stop stop-opacity="1" stop-color="rgb(100%, 20.541382%, 19.604492%)" offset="0.0390625"/><stop stop-opacity="1" stop-color="rgb(100%, 20.835876%, 19.691467%)" offset="0.046875"/><stop stop-opacity="1" stop-color="rgb(100%, 21.130371%, 19.776917%)" offset="0.0546875"/><stop stop-opacity="1" stop-color="rgb(100%, 21.424866%, 19.862366%)" offset="0.0625"/><stop stop-opacity="1" stop-color="rgb(100%, 21.717834%, 19.947815%)" offset="0.0703125"/><stop stop-opacity="1" stop-color="rgb(100%, 22.012329%, 20.033264%)" offset="0.078125"/><stop stop-opacity="1" stop-color="rgb(100%, 22.306824%, 20.120239%)" offset="0.0859375"/><stop stop-opacity="1" stop-color="rgb(100%, 22.599792%, 20.205688%)" offset="0.09375"/><stop stop-opacity="1" stop-color="rgb(100%, 22.894287%, 20.291138%)" offset="0.101562"/><stop stop-opacity="1" stop-color="rgb(100%, 23.188782%, 20.376587%)" offset="0.109375"/><stop stop-opacity="1" stop-color="rgb(100%, 23.483276%, 20.463562%)" offset="0.117188"/><stop stop-opacity="1" stop-color="rgb(100%, 23.776245%, 20.549011%)" offset="0.125"/><stop stop-opacity="1" stop-color="rgb(100%, 24.07074%, 20.63446%)" offset="0.132812"/><stop stop-opacity="1" stop-color="rgb(100%, 24.365234%, 20.71991%)" offset="0.140625"/><stop stop-opacity="1" stop-color="rgb(100%, 24.658203%, 20.805359%)" offset="0.148438"/><stop stop-opacity="1" stop-color="rgb(100%, 24.952698%, 20.892334%)" offset="0.15625"/><stop stop-opacity="1" stop-color="rgb(100%, 25.247192%, 20.977783%)" offset="0.164062"/><stop stop-opacity="1" stop-color="rgb(100%, 25.541687%, 21.063232%)" offset="0.171875"/><stop stop-opacity="1" stop-color="rgb(100%, 25.834656%, 21.148682%)" offset="0.179687"/><stop stop-opacity="1" stop-color="rgb(100%, 26.12915%, 21.235657%)" offset="0.1875"/><stop stop-opacity="1" stop-color="rgb(100%, 26.423645%, 21.321106%)" offset="0.195313"/><stop stop-opacity="1" stop-color="rgb(100%, 26.716614%, 21.406555%)" offset="0.203125"/><stop stop-opacity="1" stop-color="rgb(100%, 27.011108%, 21.492004%)" offset="0.210938"/><stop stop-opacity="1" stop-color="rgb(100%, 27.305603%, 21.577454%)" offset="0.21875"/><stop stop-opacity="1" stop-color="rgb(100%, 27.600098%, 21.664429%)" offset="0.226562"/><stop stop-opacity="1" stop-color="rgb(100%, 27.893066%, 21.749878%)" offset="0.234375"/><stop stop-opacity="1" stop-color="rgb(100%, 28.187561%, 21.835327%)" offset="0.242188"/><stop stop-opacity="1" stop-color="rgb(100%, 28.482056%, 21.920776%)" offset="0.25"/><stop stop-opacity="1" stop-color="rgb(100%, 28.775024%, 22.006226%)" offset="0.257812"/><stop stop-opacity="1" stop-color="rgb(100%, 29.069519%, 22.093201%)" offset="0.265625"/><stop stop-opacity="1" stop-color="rgb(100%, 29.364014%, 22.17865%)" offset="0.273438"/><stop stop-opacity="1" stop-color="rgb(100%, 29.658508%, 22.264099%)" offset="0.28125"/><stop stop-opacity="1" stop-color="rgb(100%, 29.951477%, 22.349548%)" offset="0.289062"/><stop stop-opacity="1" stop-color="rgb(100%, 30.245972%, 22.436523%)" offset="0.296875"/><stop stop-opacity="1" stop-color="rgb(100%, 30.540466%, 22.521973%)" offset="0.304688"/><stop stop-opacity="1" stop-color="rgb(100%, 30.833435%, 22.607422%)" offset="0.3125"/><stop stop-opacity="1" stop-color="rgb(100%, 31.12793%, 22.692871%)" offset="0.320312"/><stop stop-opacity="1" stop-color="rgb(100%, 31.422424%, 22.77832%)" offset="0.328125"/><stop stop-opacity="1" stop-color="rgb(100%, 31.716919%, 22.865295%)" offset="0.335938"/><stop stop-opacity="1" stop-color="rgb(100%, 32.009888%, 22.950745%)" offset="0.34375"/><stop stop-opacity="1" stop-color="rgb(100%, 32.304382%, 23.036194%)" offset="0.351562"/><stop stop-opacity="1" stop-color="rgb(100%, 32.598877%, 23.121643%)" offset="0.359375"/><stop stop-opacity="1" stop-color="rgb(100%, 32.891846%, 23.208618%)" offset="0.367188"/><stop stop-opacity="1" stop-color="rgb(100%, 33.18634%, 23.294067%)" offset="0.375"/><stop stop-opacity="1" stop-color="rgb(100%, 33.480835%, 23.379517%)" offset="0.382812"/><stop stop-opacity="1" stop-color="rgb(100%, 33.77533%, 23.464966%)" offset="0.390625"/><stop stop-opacity="1" stop-color="rgb(100%, 34.068298%, 23.550415%)" offset="0.398438"/><stop stop-opacity="1" stop-color="rgb(100%, 34.362793%, 23.63739%)" offset="0.40625"/><stop stop-opacity="1" stop-color="rgb(100%, 34.657288%, 23.722839%)" offset="0.414062"/><stop stop-opacity="1" stop-color="rgb(100%, 34.951782%, 23.808289%)" offset="0.421875"/><stop stop-opacity="1" stop-color="rgb(100%, 35.244751%, 23.893738%)" offset="0.429688"/><stop stop-opacity="1" stop-color="rgb(100%, 35.539246%, 23.979187%)" offset="0.4375"/><stop stop-opacity="1" stop-color="rgb(100%, 35.83374%, 24.066162%)" offset="0.445312"/><stop stop-opacity="1" stop-color="rgb(100%, 36.126709%, 24.151611%)" offset="0.453125"/><stop stop-opacity="1" stop-color="rgb(100%, 36.421204%, 24.237061%)" offset="0.460938"/><stop stop-opacity="1" stop-color="rgb(100%, 36.715698%, 24.32251%)" offset="0.46875"/><stop stop-opacity="1" stop-color="rgb(100%, 37.010193%, 24.409485%)" offset="0.476562"/><stop stop-opacity="1" stop-color="rgb(100%, 37.303162%, 24.494934%)" offset="0.484375"/><stop stop-opacity="1" stop-color="rgb(100%, 37.597656%, 24.580383%)" offset="0.492188"/><stop stop-opacity="1" stop-color="rgb(100%, 37.892151%, 24.665833%)" offset="0.5"/><stop stop-opacity="1" stop-color="rgb(100%, 38.18512%, 24.751282%)" offset="0.507812"/><stop stop-opacity="1" stop-color="rgb(100%, 38.479614%, 24.838257%)" offset="0.515625"/><stop stop-opacity="1" stop-color="rgb(100%, 38.774109%, 24.923706%)" offset="0.523438"/><stop stop-opacity="1" stop-color="rgb(100%, 39.068604%, 25.009155%)" offset="0.53125"/><stop stop-opacity="1" stop-color="rgb(100%, 39.361572%, 25.094604%)" offset="0.539062"/><stop stop-opacity="1" stop-color="rgb(100%, 39.656067%, 25.18158%)" offset="0.546875"/><stop stop-opacity="1" stop-color="rgb(100%, 39.950562%, 25.267029%)" offset="0.554688"/><stop stop-opacity="1" stop-color="rgb(100%, 40.24353%, 25.352478%)" offset="0.5625"/><stop stop-opacity="1" stop-color="rgb(100%, 40.538025%, 25.437927%)" offset="0.570313"/><stop stop-opacity="1" stop-color="rgb(100%, 40.83252%, 25.523376%)" offset="0.578125"/><stop stop-opacity="1" stop-color="rgb(100%, 41.127014%, 25.610352%)" offset="0.585938"/><stop stop-opacity="1" stop-color="rgb(100%, 41.419983%, 25.695801%)" offset="0.59375"/><stop stop-opacity="1" stop-color="rgb(100%, 41.714478%, 25.78125%)" offset="0.601562"/><stop stop-opacity="1" stop-color="rgb(100%, 42.008972%, 25.866699%)" offset="0.609375"/><stop stop-opacity="1" stop-color="rgb(100%, 42.301941%, 25.952148%)" offset="0.617188"/><stop stop-opacity="1" stop-color="rgb(100%, 42.596436%, 26.039124%)" offset="0.625"/><stop stop-opacity="1" stop-color="rgb(100%, 42.89093%, 26.124573%)" offset="0.632812"/><stop stop-opacity="1" stop-color="rgb(100%, 43.185425%, 26.210022%)" offset="0.640625"/><stop stop-opacity="1" stop-color="rgb(100%, 43.478394%, 26.295471%)" offset="0.648438"/><stop stop-opacity="1" stop-color="rgb(100%, 43.772888%, 26.382446%)" offset="0.65625"/><stop stop-opacity="1" stop-color="rgb(100%, 44.067383%, 26.467896%)" offset="0.664062"/><stop stop-opacity="1" stop-color="rgb(100%, 44.360352%, 26.553345%)" offset="0.671875"/><stop stop-opacity="1" stop-color="rgb(100%, 44.654846%, 26.638794%)" offset="0.679688"/><stop stop-opacity="1" stop-color="rgb(100%, 44.949341%, 26.724243%)" offset="0.6875"/><stop stop-opacity="1" stop-color="rgb(100%, 45.243835%, 26.811218%)" offset="0.695312"/><stop stop-opacity="1" stop-color="rgb(100%, 45.536804%, 26.896667%)" offset="0.703125"/><stop stop-opacity="1" stop-color="rgb(100%, 45.831299%, 26.982117%)" offset="0.710938"/><stop stop-opacity="1" stop-color="rgb(100%, 46.125793%, 27.067566%)" offset="0.71875"/><stop stop-opacity="1" stop-color="rgb(100%, 46.418762%, 27.154541%)" offset="0.726562"/><stop stop-opacity="1" stop-color="rgb(100%, 46.713257%, 27.23999%)" offset="0.734375"/><stop stop-opacity="1" stop-color="rgb(100%, 47.007751%, 27.325439%)" offset="0.742188"/><stop stop-opacity="1" stop-color="rgb(100%, 47.302246%, 27.410889%)" offset="0.75"/><stop stop-opacity="1" stop-color="rgb(100%, 47.595215%, 27.496338%)" offset="0.757812"/><stop stop-opacity="1" stop-color="rgb(100%, 47.889709%, 27.583313%)" offset="0.765625"/><stop stop-opacity="1" stop-color="rgb(100%, 48.184204%, 27.668762%)" offset="0.773438"/><stop stop-opacity="1" stop-color="rgb(100%, 48.477173%, 27.754211%)" offset="0.78125"/><stop stop-opacity="1" stop-color="rgb(100%, 48.771667%, 27.839661%)" offset="0.789062"/><stop stop-opacity="1" stop-color="rgb(100%, 49.066162%, 27.92511%)" offset="0.796875"/><stop stop-opacity="1" stop-color="rgb(100%, 49.360657%, 28.012085%)" offset="0.804688"/><stop stop-opacity="1" stop-color="rgb(100%, 49.653625%, 28.097534%)" offset="0.8125"/><stop stop-opacity="1" stop-color="rgb(100%, 49.94812%, 28.182983%)" offset="0.820312"/><stop stop-opacity="1" stop-color="rgb(100%, 50.242615%, 28.268433%)" offset="0.828125"/><stop stop-opacity="1" stop-color="rgb(100%, 50.535583%, 28.355408%)" offset="0.835938"/><stop stop-opacity="1" stop-color="rgb(100%, 50.830078%, 28.440857%)" offset="0.84375"/><stop stop-opacity="1" stop-color="rgb(100%, 51.124573%, 28.526306%)" offset="0.851562"/><stop stop-opacity="1" stop-color="rgb(100%, 51.419067%, 28.611755%)" offset="0.859375"/><stop stop-opacity="1" stop-color="rgb(100%, 51.712036%, 28.697205%)" offset="0.867188"/><stop stop-opacity="1" stop-color="rgb(100%, 52.006531%, 28.78418%)" offset="0.875"/><stop stop-opacity="1" stop-color="rgb(100%, 52.301025%, 28.869629%)" offset="0.882812"/><stop stop-opacity="1" stop-color="rgb(100%, 52.59552%, 28.955078%)" offset="0.890625"/><stop stop-opacity="1" stop-color="rgb(100%, 52.888489%, 29.040527%)" offset="0.898438"/><stop stop-opacity="1" stop-color="rgb(100%, 53.182983%, 29.127502%)" offset="0.90625"/><stop stop-opacity="1" stop-color="rgb(100%, 53.477478%, 29.212952%)" offset="0.914062"/><stop stop-opacity="1" stop-color="rgb(100%, 53.770447%, 29.298401%)" offset="0.921875"/><stop stop-opacity="1" stop-color="rgb(100%, 54.064941%, 29.38385%)" offset="0.929687"/><stop stop-opacity="1" stop-color="rgb(100%, 54.359436%, 29.469299%)" offset="0.9375"/><stop stop-opacity="1" stop-color="rgb(100%, 54.653931%, 29.556274%)" offset="0.945312"/><stop stop-opacity="1" stop-color="rgb(100%, 54.946899%, 29.641724%)" offset="0.953125"/><stop stop-opacity="1" stop-color="rgb(100%, 55.241394%, 29.727173%)" offset="0.960938"/><stop stop-opacity="1" stop-color="rgb(100%, 55.535889%, 29.812622%)" offset="0.96875"/><stop stop-opacity="1" stop-color="rgb(100%, 55.828857%, 29.899597%)" offset="0.976562"/><stop stop-opacity="1" stop-color="rgb(100%, 56.123352%, 29.985046%)" offset="0.984375"/><stop stop-opacity="1" stop-color="rgb(100%, 56.417847%, 30.070496%)" offset="0.992188"/><stop stop-opacity="1" stop-color="rgb(100%, 56.712341%, 30.155945%)" offset="1"/></linearGradient><clipPath id="cf001df453"><rect x="0" width="43" y="0" height="44"/></clipPath><clipPath id="15308745d8"><path d="M 240 3 L 732.9375 3 L 732.9375 175 L 240 175 Z M 240 3 " clip-rule="nonzero"/></clipPath><clipPath id="ef773db170"><rect x="0" width="493" y="0" height="172"/></clipPath><clipPath id="6c4ccb2580"><rect x="0" width="733" y="0" height="178"/></clipPath></defs><g clip-path="url(#d0393bb391)"><g transform="matrix(1, 0, 0, 1, 0, 0.000000000000003858)"><g clip-path="url(#6c4ccb2580)"><g clip-path="url(#164a4ccdec)"><g clip-path="url(#3dd0220969)"><path stroke-linecap="butt" transform="matrix(0.95899, 0, 0, 0.95899, 18.276717, 39.980524)" fill="none" stroke-linejoin="miter" d="M 55.324149 -0.000057604 L 164.207404 -0.000057604 C 194.761191 -0.000057604 219.526826 24.769651 219.526826 55.319365 C 219.526826 85.873152 194.761191 110.638787 164.207404 110.638787 L 55.324149 110.638787 C 24.770362 110.638787 0.0047271 85.873152 0.0047271 55.319365 C 0.0047271 24.769651 24.770362 -0.000057604 55.324149 -0.000057604 Z M 55.324149 -0.000057604 " stroke="#081222" stroke-width="21.867277" stroke-opacity="1" stroke-miterlimit="4"/></g></g><g clip-path="url(#bd51ef3a34)"><g clip-path="url(#77e98da9b3)"><g transform="matrix(1, 0, 0, 1, 149, 71)"><g clip-path="url(#cf001df453)"><g clip-path="url(#b4f620fc4e)"><g clip-path="url(#72ec47fe94)"><path fill="url(#ed40c66fa1)" d="M 0.226562 0.8125 L 0.226562 43.257812 L 42.671875 43.257812 L 42.671875 0.8125 Z M 0.226562 0.8125 " fill-rule="nonzero"/></g></g></g></g></g></g><g clip-path="url(#15308745d8)"><g transform="matrix(1, 0, 0, 1, 240, 3)"><g clip-path="url(#ef773db170)"><g fill="#081222" fill-opacity="1"><g transform="translate(1.183159, 142.330934)"><g><path d="M 85.1875 -52.25 L 85.1875 -103.65625 L 121.109375 -103.65625 L 121.109375 0 L 85.328125 0 L 43.015625 -55.9375 L 43.015625 0 L 7.09375 0 L 7.09375 -103.65625 L 47.5625 -103.65625 Z M 85.1875 -52.25 "/></g></g></g><g fill="#081222" fill-opacity="1"><g transform="translate(129.383846, 142.330934)"><g><path d="M 6.109375 -42.3125 L 6.109375 -103.65625 L 45.296875 -103.65625 L 45.296875 -46.578125 C 45.296875 -35.972656 50.691406 -30.671875 61.484375 -30.671875 C 72.367188 -30.671875 77.8125 -35.972656 77.8125 -46.578125 L 77.8125 -103.65625 L 117.140625 -103.65625 L 117.140625 -42.3125 C 117.140625 -33.414062 115.101562 -25.601562 111.03125 -18.875 C 106.957031 -12.15625 100.800781 -6.925781 92.5625 -3.1875 C 84.332031 0.539062 73.972656 2.40625 61.484375 2.40625 C 49.078125 2.40625 38.78125 0.539062 30.59375 -3.1875 C 22.40625 -6.925781 16.273438 -12.15625 12.203125 -18.875 C 8.140625 -25.601562 6.109375 -33.414062 6.109375 -42.3125 Z M 6.109375 -42.3125 "/></g></g></g><g fill="#081222" fill-opacity="1"><g transform="translate(252.473548, 142.330934)"><g><path d="M 87.171875 -52.53125 L 117.84375 0 L 73.96875 0 L 58.078125 -31.65625 L 42.171875 0 L -1.703125 0 L 29.109375 -52.53125 L -1.28125 -103.65625 L 42.875 -103.65625 L 58.078125 -73.265625 L 73.265625 -103.65625 L 117.28125 -103.65625 Z M 87.171875 -52.53125 "/></g></g></g><g fill="#081222" fill-opacity="1"><g transform="translate(362.359286, 142.330934)"><g><path d="M 64.171875 2.40625 C 50.921875 2.40625 39.726562 0.226562 30.59375 -4.125 C 21.457031 -8.476562 14.570312 -14.507812 9.9375 -22.21875 C 5.300781 -29.9375 2.984375 -38.8125 2.984375 -48.84375 L 2.984375 -54.8125 C 2.984375 -64.84375 5.300781 -73.710938 9.9375 -81.421875 C 14.570312 -89.140625 21.457031 -95.175781 30.59375 -99.53125 C 39.726562 -103.882812 50.921875 -106.0625 64.171875 -106.0625 C 77.523438 -106.0625 88.765625 -103.882812 97.890625 -99.53125 C 107.023438 -95.175781 113.910156 -89.140625 118.546875 -81.421875 C 123.191406 -73.710938 125.515625 -64.84375 125.515625 -54.8125 L 125.515625 -48.84375 C 125.515625 -38.8125 123.191406 -29.9375 118.546875 -22.21875 C 113.910156 -14.507812 107.023438 -8.476562 97.890625 -4.125 C 88.765625 0.226562 77.523438 2.40625 64.171875 2.40625 Z M 64.3125 -29.953125 C 71.226562 -29.953125 76.457031 -31.703125 80 -35.203125 C 83.550781 -38.710938 85.328125 -43.640625 85.328125 -49.984375 L 85.328125 -53.671875 C 85.328125 -60.109375 83.550781 -65.050781 80 -68.5 C 76.457031 -71.957031 71.226562 -73.6875 64.3125 -73.6875 C 57.40625 -73.6875 52.148438 -71.957031 48.546875 -68.5 C 44.953125 -65.050781 43.15625 -60.109375 43.15625 -53.671875 L 43.15625 -49.984375 C 43.15625 -43.640625 44.953125 -38.710938 48.546875 -35.203125 C 52.148438 -31.703125 57.40625 -29.953125 64.3125 -29.953125 Z M 64.3125 -29.953125 "/></g></g></g></g></g></g></g></g></g></svg>